# Max2Obj Version 4.0 Mar 10th, 2001
#
mtllib ./HUmar hair7.mtl
g
# object objg_plAhai06_1 to come ...
#
v  0 1.234 -0.5893
v  0.5715 0.9498 -0.4323
v  0 0.9165 -0.7977
v  0.6241 0.5365 -0.4736
v  0 0.5086 -0.8284
v  0 0.23 -0.6306
v  -0.6241 0.5365 -0.4736
v  -0.3698 0.2962 -0.3919
v  -0.4824 0.5487 -0.1044
v  -0.3543 0.3885 -0.0025
v  -0.2895 0.0937 0.1592
v  -0.2918 0.2757 0.1861
v  -0.3115 0.2378 0.0516
v  -0.3004 0.0965 -0.1164
v  -0.2171 0.066 -0.3079
v  0 0.0427 -0.4332
v  0.2171 0.066 -0.3079
v  -0.2325 0.4593 0.3338
v  -0.3792 0.5571 0.2761
v  -0.5149 0.7447 0.238
v  -0.5461 0.9579 0.1425
v  -0.5715 0.9498 -0.4323
v  -0.3948 1.2137 0.0484
v  -0.4028 1.234 -0.3457
v  0 1.3605 -0.0982
v  0.4028 1.234 -0.3457
v  0.3948 1.2137 0.0484
v  0.5461 0.9579 0.1425
v  0 0.9899 0.5238
v  0.5149 0.7447 0.238
v  0 0.6381 0.5994
v  0.3792 0.5571 0.2761
v  0.2325 0.4593 0.3338
v  0.3543 0.3885 -0.0025
v  0.2918 0.2757 0.1861
v  0.3115 0.2378 0.0516
v  0.2895 0.0937 0.1592
v  0.3004 0.0965 -0.1164
v  0 1.2095 0.3434
v  0 0.4125 0.4815
v  0.4824 0.5487 -0.1044
v  0.3698 0.2962 -0.3919
# 42 vertices

vt  0.8078 0.9451 0
vt  0.6628 0.7333 0
vt  0.9176 0.8118 0
vt  0.7137 0.549 0
vt  0.9765 0.5686 0
vt  0.9882 0.4549 0
vt  0.7608 0.4431 0
vt  0.4745 0.5137 0
vt  0.4196 0.3961 0
vt  0.1373 0.2627 0
vt  0.098 0.3529 0
vt  0.2745 0.3176 0
vt  0.4078 0.2627 0
vt  0.7843 0.2588 0
vt  0.9686 0.2627 0
vt  0.1686 0.4706 0
vt  0.3098 0.5294 0
vt  0.3569 0.6235 0
vt  0.3686 0.7255 0
vt  0.3372 0.8667 0
vt  0.6039 0.8549 0
vt  0.4706 0.9961 0
vt  0.0196 0.8118 0
vt  0.0078 0.6 0
vt  0.1294 0.9451 0
vt  0.0078 0.4706 0
# 26 texture vertices

vn  0 0.758487 -0.651689
vn  0.832124 0.34601 -0.433413
vn  0 0.307605 -0.951514
vn  0.872377 -0.322691 -0.36719
vn  0 -0.250598 -0.968091
vn  0 -0.65982 -0.751423
vn  -0.872377 -0.322691 -0.36719
vn  -0.718506 -0.640805 -0.270402
vn  -0.764207 -0.593106 0.253402
vn  -0.901205 -0.378002 0.212001
vn  -0.992309 -0.082701 0.092101
vn  -0.967397 -0.038 0.250399
vn  -0.978401 -0.1604 0.1304
vn  -0.949026 -0.315109 -0.0075
vn  -0.626538 -0.617437 -0.475628
vn  0 -0.725511 -0.68821
vn  0.626538 -0.617437 -0.475628
vn  -0.657903 -0.424002 0.622403
vn  -0.69263 -0.493521 0.526023
vn  -0.820978 -0.133696 0.555085
vn  -0.849631 0.324512 0.415715
vn  -0.832124 0.34601 -0.433413
vn  -0.585319 0.751124 0.30531
vn  -0.572312 0.762517 -0.301707
vn  0 0.998287 0.058499
vn  0.572312 0.762517 -0.301707
vn  0.585319 0.751124 0.30531
vn  0.849631 0.324512 0.415715
vn  0 0.419521 0.907746
vn  0.820978 -0.133696 0.555085
vn  0 -0.137696 0.990474
vn  0.69263 -0.493521 0.526023
vn  0.657903 -0.424002 0.622403
vn  0.901205 -0.378002 0.212001
vn  0.967397 -0.038 0.250399
vn  0.978401 -0.1604 0.1304
vn  0.992309 -0.082701 0.092101
vn  0.949026 -0.315109 -0.0075
vn  0 0.77219 0.635392
vn  0 -0.463102 0.886305
vn  0.764207 -0.593106 0.253402
vn  0.718506 -0.640805 -0.270402
# 42 vertex normals

g objg_plAhai06_1
usemtl Material__26
s 2
f -42/-26/-42 -41/-25/-41 -40/-24/-40
f -41/-25/-41 -39/-23/-39 -40/-24/-40
f -40/-24/-40 -39/-23/-39 -38/-22/-38
f -39/-23/-39 -37/-21/-37 -38/-22/-38
f -38/-22/-38 -37/-21/-37 -36/-23/-36
f -37/-21/-37 -35/-20/-35 -36/-23/-36
f -36/-23/-36 -35/-20/-35 -34/-19/-34
f -35/-20/-35 -33/-18/-33 -34/-19/-34
f -32/-17/-32 -31/-16/-31 -30/-15/-30
f -31/-16/-31 -33/-18/-33 -30/-15/-30
f -30/-15/-30 -33/-18/-33 -29/-14/-29
f -33/-18/-33 -35/-20/-35 -29/-14/-29
f -29/-14/-29 -35/-20/-35 -28/-13/-28
f -35/-20/-35 -37/-21/-37 -28/-13/-28
f -28/-13/-28 -37/-21/-37 -27/-12/-27
f -37/-21/-37 -26/-13/-26 -27/-12/-27
f -31/-16/-31 -25/-11/-25 -33/-18/-33
f -25/-11/-25 -24/-10/-24 -33/-18/-33
f -33/-18/-33 -24/-10/-24 -34/-19/-34
f -24/-10/-24 -23/-9/-23 -34/-19/-34
f -34/-19/-34 -23/-9/-23 -36/-23/-36
f -23/-9/-23 -22/-8/-22 -36/-23/-36
f -36/-23/-36 -22/-8/-22 -21/-25/-21
f -22/-8/-22 -20/-7/-20 -21/-25/-21
f -21/-25/-21 -20/-7/-20 -19/-6/-19
f -20/-7/-20 -18/-5/-18 -19/-6/-19
f -19/-6/-19 -18/-5/-18 -42/-26/-42
f -18/-5/-18 -17/-6/-17 -42/-26/-42
f -42/-26/-42 -17/-6/-17 -41/-25/-41
f -17/-6/-17 -16/-7/-16 -41/-25/-41
f -41/-25/-41 -16/-7/-16 -15/-8/-15
f -16/-7/-16 -14/-4/-14 -15/-8/-15
f -15/-8/-15 -14/-4/-14 -13/-9/-13
f -14/-4/-14 -12/-3/-12 -13/-9/-13
f -13/-9/-13 -12/-3/-12 -11/-10/-11
f -12/-3/-12 -10/-11/-10 -11/-10/-11
f -11/-10/-11 -10/-11/-10 -9/-18/-9
f -10/-11/-10 -8/-16/-8 -9/-18/-9
f -9/-18/-9 -8/-16/-8 -7/-15/-7
f -8/-16/-8 -6/-17/-6 -7/-15/-7
f -7/-15/-7 -6/-17/-6 -5/-14/-5
f -17/-6/-17 -18/-5/-18 -16/-7/-16
f -18/-5/-18 -4/-2/-4 -16/-7/-16
f -16/-7/-16 -4/-2/-4 -14/-4/-14
f -4/-2/-4 -20/-7/-20 -14/-4/-14
f -14/-4/-14 -20/-7/-20 -22/-8/-22
f -20/-7/-20 -4/-2/-4 -18/-5/-18
f -39/-23/-39 -41/-25/-41 -15/-8/-15
f -30/-15/-30 -29/-14/-29 -32/-17/-32
f -24/-10/-24 -25/-11/-25 -12/-3/-12
f -25/-11/-25 -3/-1/-3 -12/-3/-12
f -12/-3/-12 -3/-1/-3 -10/-11/-10
f -15/-8/-15 -13/-9/-13 -39/-23/-39
f -13/-9/-13 -2/-19/-2 -39/-23/-39
f -39/-23/-39 -2/-19/-2 -1/-20/-1
f -2/-19/-2 -9/-18/-9 -1/-20/-1
f -1/-20/-1 -9/-18/-9 -5/-14/-5
f -9/-18/-9 -7/-15/-7 -5/-14/-5
f -38/-22/-38 -36/-23/-36 -40/-24/-40
f -36/-23/-36 -21/-25/-21 -40/-24/-40
f -40/-24/-40 -21/-25/-21 -42/-26/-42
f -21/-25/-21 -19/-6/-19 -42/-26/-42
f -5/-14/-5 -26/-13/-26 -1/-20/-1
f -26/-13/-26 -37/-21/-37 -1/-20/-1
f -1/-20/-1 -37/-21/-37 -39/-23/-39
f -9/-18/-9 -2/-19/-2 -11/-10/-11
f -2/-19/-2 -13/-9/-13 -11/-10/-11
f -24/-10/-24 -12/-3/-12 -23/-9/-23
f -12/-3/-12 -14/-4/-14 -23/-9/-23
f -23/-9/-23 -14/-4/-14 -22/-8/-22
# 70 faces

g
