# Max2Obj Version 4.0 Mar 10th, 2001
#
mtllib ./HUmar hair10.mtl
g
# object objg_plAhai09_1 to come ...
#
v  0.2519 0.1287 -0.0073
v  0.3258 0.3444 -0.0843
v  0.3594 0.4037 0.0205
v  0.354 0.5788 -0.0748
v  0.3353 0.6607 0.2454
v  0.2597 0.8357 -0.1951
v  0.1488 0.8781 0.2073
v  0 0.9015 0.0169
v  -0.1488 0.8781 0.2073
v  -0.302 0.4237 0.1389
v  -0.3594 0.4037 0.0205
v  -0.2519 0.1287 -0.0073
v  -0.3258 0.3444 -0.0843
v  -0.2694 0.3246 -0.3197
v  0 0.0951 -0.4518
v  -0.0672 0.0555 -0.3984
v  0.0672 0.0555 -0.3984
v  -0.227 -0.0043 -0.1513
v  0.227 -0.0043 -0.1513
v  0.2694 0.3246 -0.3197
v  0.2525 0.5677 -0.3833
v  0 0.8502 -0.2917
v  -0.2597 0.8357 -0.1951
v  0 0.2198 -0.4256
v  0 0.5626 -0.4735
v  -0.2525 0.5677 -0.3833
v  0.302 0.4237 0.1389
v  0 0.5525 0.4351
v  -0.2259 0.666 0.434
v  -0.215 0.5792 0.3999
v  -0.3353 0.6607 0.2454
v  -0.2505 0.4397 0.2807
v  0.2505 0.4397 0.2807
v  0.215 0.5792 0.3999
v  0.2259 0.666 0.434
v  0 0.7172 0.4784
v  -0.354 0.5788 -0.0748
v  -0.1109 0.3617 0.5404
v  -0.0935 0.535 0.5728
v  -0.1264 0.549 0.5608
v  -0.0581 0.5841 0.5584
v  -0.074 0.6195 0.5376
v  -0.001 0.5634 0.4274
# 43 vertices

vt  0.549 0.0235 0
vt  0.6628 0.3725 0
vt  0.5333 0.4157 0
vt  0.6 0.6667 0
vt  0.3804 0.7451 0
vt  0.6471 0.8941 0
vt  0.2902 0.9569 0
vt  0.5216 0.9922 0
vt  0.1961 0.9843 0
vt  0.451 0.3765 0
vt  0.7569 0.3333 0
vt  0.9922 0.0667 0
vt  0.8745 0.0235 0
vt  0.6823 0.1059 0
vt  0.7569 0.6588 0
vt  0.9059 0.9216 0
vt  0.9804 0.3765 0
vt  0.9608 0.6784 0
vt  0.0353 0.6 0
vt  0.2353 0.7608 0
vt  0.2235 0.5961 0
vt  0.3451 0.4118 0
vt  0.0353 0.8039 0
vt  0.3294 0.5725 0
vt  0.4823 0.5451 0
vt  0.4863 0.7216 0
vt  0.6392 0.549 0
vt  0.6392 0.7529 0
vt  0.8196 0.6627 0
# 29 texture vertices

vn  0.909279 -0.374091 0.182396
vn  0.965776 -0.256894 0.035799
vn  0.968456 -0.22049 0.116095
vn  0.982398 0.1185 -0.1444
vn  0.919075 0.228194 0.321291
vn  0.624515 0.704417 -0.337308
vn  0.365919 0.885445 0.286515
vn  0 0.999058 -0.043398
vn  -0.365919 0.885445 0.286515
vn  -0.842674 -0.32339 0.430487
vn  -0.968456 -0.22049 0.116095
vn  -0.909279 -0.374091 0.182396
vn  -0.965776 -0.256894 0.035799
vn  -0.791707 -0.184402 -0.582405
vn  0 -0.292216 -0.956352
vn  -0.3722 -0.6907 -0.62
vn  0.3722 -0.6907 -0.62
vn  -0.563981 -0.755674 0.332989
vn  0.563981 -0.755674 0.332989
vn  0.791707 -0.184402 -0.582405
vn  0.65989 0.164698 -0.733089
vn  0 0.804014 -0.59461
vn  -0.624515 0.704417 -0.337308
vn  0 0.059701 -0.998216
vn  0 0.1935 -0.9811
vn  -0.65989 0.164698 -0.733089
vn  0.842674 -0.32339 0.430487
vn  0 -0.287614 0.957746
vn  -0.573794 0.170798 0.800992
vn  -0.620672 -0.333585 0.709568
vn  -0.919075 0.228194 0.321291
vn  -0.865686 -0.264196 0.425193
vn  0.865686 -0.264196 0.425193
vn  0.620672 -0.333585 0.709568
vn  0.573794 0.170798 0.800992
vn  0 0.375921 0.926652
vn  -0.982398 0.1185 -0.1444
vn  -0.387816 -0.131305 0.912337
vn  -0.2919 0.1261 0.9481
vn  -0.282104 0.171602 0.943912
vn  0.253211 0.563525 0.786335
vn  0.487202 0.594702 0.639503
vn  0.809106 0.521704 0.270502
# 43 vertex normals

g objg_plAhai09_1
usemtl Material__25
s 2
f -43/-29/-43 -42/-28/-42 -41/-27/-41
f -42/-28/-42 -40/-26/-40 -41/-27/-41
f -41/-27/-41 -40/-26/-40 -39/-25/-39
f -40/-26/-40 -38/-24/-38 -39/-25/-39
f -39/-25/-39 -38/-24/-38 -37/-23/-37
f -38/-24/-38 -36/-22/-36 -37/-23/-37
f -37/-23/-37 -36/-22/-36 -35/-21/-35
f -34/-20/-34 -33/-27/-33 -32/-29/-32
f -33/-27/-33 -31/-28/-31 -32/-29/-32
f -30/-19/-30 -29/-18/-29 -28/-17/-28
f -29/-18/-29 -27/-17/-27 -28/-17/-28
f -31/-28/-31 -26/-16/-26 -42/-28/-42
f -26/-16/-26 -25/-16/-25 -42/-28/-42
f -25/-16/-25 -24/-19/-24 -42/-28/-42
f -42/-28/-42 -24/-19/-24 -40/-26/-40
f -24/-19/-24 -23/-15/-23 -40/-26/-40
f -40/-26/-40 -23/-15/-23 -38/-24/-38
f -23/-15/-23 -22/-14/-22 -38/-24/-38
f -38/-24/-38 -22/-14/-22 -36/-22/-36
f -22/-14/-22 -21/-24/-21 -36/-22/-36
f -36/-22/-36 -21/-24/-21 -35/-21/-35
f -24/-19/-24 -20/-13/-20 -23/-15/-23
f -20/-13/-20 -19/-12/-19 -23/-15/-23
f -23/-15/-23 -19/-12/-19 -22/-14/-22
f -19/-12/-19 -18/-15/-18 -22/-14/-22
f -22/-14/-22 -18/-15/-18 -21/-24/-21
f -18/-15/-18 -19/-12/-19 -20/-13/-20
f -39/-25/-39 -17/-20/-17 -41/-27/-41
f -17/-20/-17 -43/-29/-43 -41/-27/-41
f -16/-11/-16 -15/-10/-15 -14/-9/-14
f -15/-10/-15 -13/-25/-13 -14/-9/-14
f -14/-9/-14 -13/-25/-13 -12/-8/-12
f -17/-20/-17 -39/-25/-39 -11/-8/-11
f -11/-8/-11 -39/-25/-39 -10/-9/-10
f -39/-25/-39 -9/-10/-9 -10/-9/-10
f -10/-9/-10 -9/-10/-9 -16/-11/-16
f -9/-10/-9 -8/-7/-8 -16/-11/-16
f -16/-11/-16 -8/-7/-8 -15/-10/-15
f -8/-7/-8 -35/-21/-35 -15/-10/-15
f -15/-10/-15 -35/-21/-35 -13/-25/-13
f -35/-21/-35 -21/-24/-21 -13/-25/-13
f -13/-25/-13 -21/-24/-21 -7/-26/-7
f -21/-24/-21 -18/-15/-18 -7/-26/-7
f -7/-26/-7 -18/-15/-18 -30/-19/-30
f -18/-15/-18 -20/-13/-20 -30/-19/-30
f -30/-19/-30 -20/-13/-20 -29/-18/-29
f -20/-13/-20 -24/-19/-24 -29/-18/-29
f -29/-18/-29 -24/-19/-24 -27/-17/-27
f -24/-19/-24 -25/-16/-25 -27/-17/-27
f -27/-17/-27 -25/-16/-25 -28/-17/-28
f -25/-16/-25 -26/-16/-26 -28/-17/-28
f -28/-17/-28 -26/-16/-26 -30/-19/-30
f -26/-16/-26 -31/-28/-31 -30/-19/-30
f -30/-19/-30 -31/-28/-31 -7/-26/-7
f -31/-28/-31 -33/-27/-33 -7/-26/-7
f -7/-26/-7 -33/-27/-33 -13/-25/-13
f -33/-27/-33 -34/-20/-34 -13/-25/-13
f -13/-25/-13 -34/-20/-34 -12/-8/-12
f -35/-21/-35 -8/-7/-8 -37/-23/-37
f -8/-7/-8 -9/-10/-9 -37/-23/-37
f -37/-23/-37 -9/-10/-9 -39/-25/-39
f -6/-6/-6 -5/-5/-5 -4/-4/-4
f -5/-5/-5 -3/-3/-3 -4/-4/-4
f -4/-4/-4 -3/-3/-3 -2/-2/-2
f -3/-3/-3 -1/-1/-1 -2/-2/-2
# 65 faces

g
# object objg_plAhai09_2 to come ...
#
v  0 0.1315 -0.4033
v  -0.0016 0.0145 -0.628
v  -0.1465 -0.0535 -0.5092
v  -0.0016 -0.1215 -0.3903
v  0.1433 -0.0535 -0.5092
v  -0.0016 -0.2717 -0.6341
# 6 vertices

vt  0.2039 0.0196 0
vt  0.2 0.3529 0
vt  0.0118 0.3529 0
vt  0.3726 0.3529 0
vt  0.2 0.0235 0
# 5 texture vertices

vn  0.0058 0.867834 0.49682
vn  -0.001 0.522707 -0.852512
vn  -0.999473 0.028199 0.0161
vn  -0.001 -0.4705 0.8824
vn  0.999598 0.0246 0.0141
vn  0 -0.867874 -0.496785
# 6 vertex normals

g objg_plAhai09_2
usemtl Material__25
s 2
f -6/-5/-6 -5/-4/-5 -4/-3/-4
f -4/-3/-4 -3/-4/-3 -6/-5/-6
f -3/-4/-3 -2/-2/-2 -6/-5/-6
f -6/-5/-6 -2/-2/-2 -5/-4/-5
f -2/-2/-2 -1/-1/-1 -5/-4/-5
f -5/-4/-5 -1/-1/-1 -4/-3/-4
f -1/-1/-1 -3/-4/-3 -4/-3/-4
f -3/-4/-3 -1/-1/-1 -2/-2/-2
# 8 faces

g
# object objg_plAhai09_3 to come ...
#
v  0 -0.158 -0.5733
v  -0.0016 -0.3268 -0.7622
v  -0.1465 -0.3634 -0.6302
v  -0.0016 -0.3999 -0.4982
v  0.1433 -0.3634 -0.6302
v  -0.0016 -0.6057 -0.6972
# 6 vertices

vt  0.1686 0.0392 0
vt  0.1686 0.3686 0
vt  0.0078 0.3686 0
vt  0.3372 0.3686 0
# 4 texture vertices

vn  0.0058 0.963765 0.26669
vn  -0.001 0.295603 -0.95531
vn  -0.999472 0.031299 0.0087
vn  -0.001 -0.237591 0.971365
vn  0.999599 0.0273 0.0075
vn  0 -0.963781 -0.266695
# 6 vertex normals

g objg_plAhai09_3
usemtl Material__25
s 2
f -6/-4/-6 -5/-3/-5 -4/-2/-4
f -4/-2/-4 -3/-3/-3 -6/-4/-6
f -3/-3/-3 -2/-1/-2 -6/-4/-6
f -6/-4/-6 -2/-1/-2 -5/-3/-5
f -2/-1/-2 -1/-4/-1 -5/-3/-5
f -5/-3/-5 -1/-4/-1 -4/-2/-4
f -1/-4/-1 -3/-3/-3 -4/-2/-4
f -3/-3/-3 -1/-4/-1 -2/-1/-2
# 8 faces

g
# object objg_plAhai09_4 to come ...
#
v  0.0045 -0.485 -0.6658
v  0.0031 -0.6919 -0.7955
v  -0.1229 -0.6979 -0.6765
v  0.0031 -0.7038 -0.5575
v  0.1292 -0.6979 -0.6765
v  0.0031 -0.949 -0.6891
# 6 vertices

vt  0.1843 0.0275 0
vt  0.1843 0.3686 0
vt  0.0235 0.3725 0
vt  0.3451 0.3725 0
vt  0.1882 0.0275 0
# 5 texture vertices

vn  0.0054 0.998735 0.050002
vn  -0.0009 0.078402 -0.996921
vn  -0.999524 0.030801 0.0015
vn  -0.0009 -0.021599 0.999766
vn  0.99964 0.026801 0.0013
vn  0 -0.998749 -0.050002
# 6 vertex normals

g objg_plAhai09_4
usemtl Material__25
s 2
f -6/-5/-6 -5/-4/-5 -4/-3/-4
f -4/-3/-4 -3/-4/-3 -6/-5/-6
f -3/-4/-3 -2/-2/-2 -6/-5/-6
f -6/-5/-6 -2/-2/-2 -5/-4/-5
f -2/-2/-2 -1/-1/-1 -5/-4/-5
f -5/-4/-5 -1/-1/-1 -4/-3/-4
f -1/-1/-1 -3/-4/-3 -4/-3/-4
f -3/-4/-3 -1/-1/-1 -2/-2/-2
# 8 faces

g
# object objg_plAhai09_5 to come ...
#
v  -0.0004 -1.2495 -0.8125
v  0.1506 -1.309 -0.7071
v  0.1144 -1.0273 -0.693
v  -0.0004 -1.2603 -0.5964
v  0.0056 -0.7947 -0.6814
v  -0.1064 -1.0273 -0.693
v  -0.149 -1.309 -0.7071
# 7 vertices

vt  0.1765 0.2706 0
vt  0.0392 0.1529 0
vt  0.0039 0.2902 0
vt  0.1804 0.0118 0
vt  0.3137 0.1451 0
vt  0.3412 0.2902 0
# 6 texture vertices

vn  -0.0076 -0.264607 -0.964326
vn  0.810128 -0.58552 -0.029301
vn  0.940275 0.339991 0.017
vn  -0.0076 -0.359679 0.933045
vn  0.008 0.998717 0.050001
vn  -0.934809 0.354704 0.0178
vn  -0.81439 -0.579593 -0.029
# 7 vertex normals

g objg_plAhai09_5
usemtl Material__25
s 2
f -7/-6/-7 -5/-5/-5 -6/-4/-6
f -6/-4/-6 -5/-5/-5 -4/-6/-4
f -5/-5/-5 -3/-3/-3 -4/-6/-4
f -4/-6/-4 -3/-3/-3 -2/-2/-2
f -3/-3/-3 -7/-6/-7 -2/-2/-2
f -2/-2/-2 -7/-6/-7 -1/-1/-1
f -7/-6/-7 -6/-4/-6 -1/-1/-1
f -1/-1/-1 -6/-4/-6 -4/-6/-4
f -2/-2/-2 -1/-1/-1 -4/-6/-4
f -3/-3/-3 -5/-5/-5 -7/-6/-7
# 10 faces

g
