# Max2Obj Version 4.0 Mar 10th, 2001
#
mtllib ./HUmar hair8.mtl
g
# object objg_plAhai07_1 to come ...
#
v  -0.3987 -0.6982 -0.6503
v  -0.4249 -0.3176 -0.5148
v  -0.2365 -0.2625 -0.6724
v  -0.3605 0.1082 -0.2622
v  0 0.1896 -0.4562
v  0 0.7945 -0.3621
v  0.04 0.5568 -0.4748
v  -0.2021 0.5285 -0.4145
v  0.3403 0.408 -0.0472
v  0.3409 0.6893 0.049
v  0.3534 0.4957 -0.1495
v  0.296 0.7912 -0.149
v  0.3495 0.377 -0.2557
v  0.2031 0.5237 -0.4172
v  0.3685 0.102 -0.2626
v  -0.2547 0.1222 -0.092
v  -0.3447 0.4092 -0.0787
v  -0.3621 0.4929 -0.1484
v  -0.3592 0.5987 -0.0633
v  0.2693 0.1289 -0.0996
v  0.2152 0.7752 0.2077
v  0.206 0.8545 0.0574
v  0 0.921 -0.1252
v  -0.301 0.7936 -0.1476
v  -0.3363 0.4117 -0.2301
v  -0.2587 -0.0739 -0.1912
v  0.005 -0.0715 -0.1934
v  0 -0.4044 -0.4398
v  0.2687 -0.0692 -0.1957
v  0.4358 -0.3147 -0.516
v  0.2425 -0.2568 -0.6748
v  0.003 -0.2596 -0.6736
v  -0.0001 -0.6707 -0.7869
v  0 -1.0163 -0.7586
v  -0.2735 -1.0366 -0.6712
v  0 -1.1877 -0.6708
v  0 -0.7699 -0.5477
v  0.2877 -1.0318 -0.6736
v  0.4095 -0.6929 -0.6526
v  -0.3419 0.7124 0.0064
v  -0.2018 0.8072 0.1789
v  -0.2192 0.8699 0.0598
v  0 0.8573 0.1886
v  -0.32 0.4501 0.2308
v  -0.2458 0.3248 0.2904
v  -0.2293 0.5207 0.3785
v  0.0994 0.5421 0.5002
v  0.07 0.3717 0.4662
v  0.2522 0.5488 0.4489
v  0.2441 0.3467 0.3986
v  0.3525 0.5706 0.2835
v  0.2897 0.3328 0.2308
v  0.3398 0.251 0.1141
v  0.2729 0.1487 0.1687
v  0.2516 -0.109 0.08
v  -0.1196 0.3116 0.3776
v  0.0354 0.4165 0.4862
v  -0.0909 0.441 0.4799
v  -0.0726 0.5377 0.514
v  -0.0455 0.6467 0.4746
v  -0.1218 0.7108 0.393
v  0.0885 0.6964 0.4469
v  0.0969 0.7696 0.3666
v  0.2713 0.648 0.4279
v  0.341 0.6795 0.2249
v  0.3649 0.4704 0.0668
v  0.3164 0.2141 -0.0277
v  -0.3153 -0.1631 -0.0317
v  -0.2936 -0.1715 0.1515
v  -0.3232 0.1092 0.0619
v  -0.2834 0.0866 0.1693
v  -0.3548 0.4027 0.1084
v  -0.3251 0.6338 0.2061
v  0.3403 0.408 -0.0472
v  0.3409 0.6893 0.049
v  0.2152 0.7752 0.2077
v  0 0.8573 0.1886
v  -0.2018 0.8072 0.1789
v  -0.3419 0.7124 0.0064
v  -0.3592 0.5987 -0.0633
v  -0.3447 0.4092 -0.0787
v  -0.3226 0.1059 -0.0504
v  0.0125 0.8109 0.2777
v  -0.2699 0.7602 0.2699
v  -0.1427 0.7289 0.3816
v  -0.3486 0.6173 0.2356
v  -0.2313 -0.1472 0.2927
v  -0.3515 0.3373 0.1688
v  -0.2493 0.3115 0.3362
v  -0.2236 0.5811 0.3999
v  -0.1942 0.8422 0.1615
v  -0.3399 0.7391 -0.0104
v  -0.389 0.4317 -0.0556
v  -0.3597 -0.02 0.0202
# 94 vertices

vt  0.149 0.2549 0
vt  0.4353 0.2784 0
vt  0.5216 0.1529 0
vt  0.6863 0.2392 0
vt  0.6471 0.0118 0
vt  0.949 0.0157 0
vt  0.8745 0.0157 0
vt  0.8314 0.1725 0
vt  0.8431 0.2824 0
vt  0.8431 0.2353 0
vt  0.8863 0.2275 0
vt  0.902 0.1529 0
vt  0.7922 0.2196 0
vt  0.8353 0.1725 0
vt  0.7451 0.2314 0
vt  0.8392 0.2353 0
vt  0.851 0.2667 0
vt  0.749 0.2431 0
vt  0.9882 0.2745 0
vt  0.949 0.1804 0
vt  0.9647 0.0157 0
vt  0.9098 0.149 0
vt  0.7922 0.2157 0
vt  0.6196 0.1922 0
vt  0.749 0.0118 0
vt  0.4471 0.0118 0
vt  0.4353 0.2824 0
vt  0.5098 0.0118 0
vt  0.2902 0.0118 0
vt  0.1333 0.0118 0
vt  0.0275 0.1882 0
vt  0.0078 0.0118 0
vt  0.2431 0.0118 0
vt  0.0235 0.1922 0
vt  0.8549 0.2549 0
vt  0.9804 0.2745 0
vt  0.9451 0.1882 0
vt  0.9882 0.0196 0
vt  0.4078 0.6196 0
vt  0.1412 0.3216 0
vt  0.0235 0.9294 0
vt  0.4431 0.7098 0
vt  0.4275 0.4745 0
vt  0.5882 0.7137 0
vt  0.6353 0.4588 0
vt  0.7725 0.7373 0
vt  0.7372 0.451 0
vt  0.8549 0.5333 0
vt  0.7843 0.3529 0
vt  0.8941 0.3059 0
vt  0.051 0.3176 0
vt  0.3529 0.4902 0
vt  0.1412 0.5569 0
vt  0.2 0.7412 0
vt  0.251 0.8863 0
vt  0.1216 0.9765 0
vt  0.4941 0.9373 0
vt  0.4863 0.9765 0
vt  0.6235 0.8784 0
vt  0.8078 0.9373 0
vt  0.9059 0.8078 0
vt  0.9922 0.5451 0
vt  0.9686 0.3373 0
vt  0.5843 0.3098 0
vt  0.7922 0.4667 0
vt  0.5608 0.4745 0
vt  0.702 0.6706 0
vt  0.4588 0.8824 0
vt  0.9843 0.9804 0
vt  0.8706 0.9922 0
vt  0.7294 0.9843 0
vt  0.251 0.9843 0
vt  0.3804 0.9843 0
vt  0.7333 0.9608 0
vt  0.9216 0.902 0
vt  0.949 0.7137 0
vt  0.9765 0.4627 0
vt  0.3647 0.9804 0
vt  0.6667 0.9176 0
vt  0.5255 0.8353 0
vt  0.8039 0.7961 0
vt  0.6863 0.3176 0
vt  0.6667 0.5216 0
vt  0.8118 0.5294 0
vt  0.6196 0.6706 0
vt  0.7255 0.9922 0
vt  0.9804 0.9294 0
vt  0.9922 0.549 0
vt  0.949 0.3137 0
# 89 texture vertices

vn  -0.953818 -0.293705 -0.063001
vn  -0.990998 -0.1113 0.0744
vn  -0.370402 0.354402 -0.858604
vn  -0.996606 0.0663 -0.0488
vn  -0.0081 0.2294 -0.973299
vn  -0.0001 0.684972 -0.72857
vn  0.076898 0.211394 -0.974371
vn  -0.555069 0.18419 -0.811155
vn  0.986643 -0.162407 -0.012601
vn  0.911709 0.403404 0.077801
vn  0.997008 0.0328 -0.070001
vn  0.732609 0.611507 -0.298904
vn  0.967598 0.0317 -0.250499
vn  0.567715 0.185205 -0.802121
vn  0.996985 0.066899 -0.039299
vn  -0.632805 -0.307103 0.710806
vn  -0.968175 -0.244794 -0.052099
vn  -0.985326 -0.0052 -0.170604
vn  -0.978267 0.158995 -0.133096
vn  0.669235 -0.283515 0.686836
vn  0.526208 0.764911 0.371505
vn  0.485715 0.853127 0.190406
vn  0.0168 0.979591 -0.200298
vn  -0.725317 0.602014 -0.333908
vn  -0.959084 0.0085 -0.282995
vn  -0.414916 -0.471218 0.77833
vn  0.0139 -0.52159 0.853083
vn  0.0017 -0.499118 0.866532
vn  0.415014 -0.467316 0.780627
vn  0.991597 -0.1044 0.0764
vn  0.360621 0.360921 -0.860051
vn  -0.0088 0.352019 -0.935951
vn  -0.0101 0.037298 -0.999253
vn  -0.0118 -0.255204 -0.966815
vn  -0.798358 -0.602168 -0.0042
vn  -0.0031 -0.99705 0.076696
vn  0.0002 -0.249588 0.968352
vn  0.795718 -0.605613 -0.0081
vn  0.955318 -0.287605 -0.068201
vn  -0.903414 0.426607 0.043001
vn  -0.473809 0.748714 0.463609
vn  -0.499073 0.841254 0.207889
vn  0.048199 0.951389 0.304197
vn  -0.905952 -0.063597 0.418578
vn  -0.792021 -0.193505 0.579015
vn  -0.746919 0.071902 0.661016
vn  0.192209 0.061203 0.979444
vn  0.319902 -0.239402 0.916706
vn  0.594595 -0.074199 0.800594
vn  0.708976 -0.264191 0.653878
vn  0.957162 0.0098 0.289388
vn  0.828794 -0.308398 0.466896
vn  0.954825 -0.218506 0.201405
vn  0.812117 -0.249605 0.527411
vn  0.954109 -0.249502 0.165602
vn  -0.483995 -0.474595 0.735193
vn  -0.0411 -0.342297 0.938692
vn  -0.405505 -0.377704 0.832409
vn  -0.322595 0.092699 0.941987
vn  -0.238701 0.478001 0.845303
vn  -0.444083 0.611176 0.655175
vn  0.082602 0.582511 0.808615
vn  0.159792 0.845458 0.509575
vn  0.614119 0.425913 0.664421
vn  0.836986 0.519392 0.172297
vn  0.996871 -0.0063 -0.078798
vn  0.976007 -0.185201 -0.114501
vn  -0.994562 -0.058298 0.086297
vn  -0.983581 -0.047899 0.173997
vn  -0.986297 -0.0733 0.1478
vn  -0.939968 -0.064098 0.335189
vn  -0.987495 -0.0668 0.142799
vn  -0.875716 0.299505 0.378707
vn  0.982355 -0.074397 -0.171592
vn  0.941072 0.33719 -0.026199
vn  0.49189 0.819984 0.292694
vn  -0.037 0.899812 0.434706
vn  -0.556901 0.697402 0.451101
vn  -0.944601 0.2705 0.1859
vn  -0.997386 0.0341 0.063699
vn  -0.99538 -0.081598 -0.050599
vn  -0.998702 -0.0508 -0.0036
vn  -0.167809 0.861945 0.478425
vn  -0.6183 0.5997 0.508
vn  -0.425879 0.682166 0.594371
vn  -0.905749 0.175609 0.385721
vn  -0.919047 -0.133307 0.370919
vn  -0.941604 -0.0726 0.328802
vn  -0.845716 -0.087502 0.52641
vn  -0.757235 0.20381 0.620529
vn  -0.430705 0.838611 0.333504
vn  -0.920932 0.377713 0.096003
vn  -0.992721 0.0231 0.118202
vn  -0.94288 -0.109298 0.314693
# 94 vertex normals

g objg_plAhai07_1
usemtl _01___Default
s 2
f -94/-89/-94 -93/-88/-93 -92/-87/-92
f -93/-88/-93 -91/-86/-91 -92/-87/-92
f -92/-87/-92 -91/-86/-91 -90/-85/-90
f -89/-84/-89 -88/-83/-88 -87/-82/-87
f -86/-81/-86 -84/-80/-84 -85/-79/-85
f -85/-79/-85 -84/-80/-84 -83/-78/-83
f -84/-80/-84 -82/-77/-82 -83/-78/-83
f -83/-78/-83 -82/-77/-82 -81/-76/-81
f -82/-77/-82 -80/-86/-80 -81/-76/-81
f -81/-76/-81 -80/-86/-80 -90/-85/-90
f -79/-75/-79 -78/-81/-78 -77/-74/-77
f -78/-81/-78 -76/-73/-76 -77/-74/-77
f -80/-86/-80 -82/-77/-82 -75/-72/-75
f -82/-77/-82 -84/-80/-84 -75/-72/-75
f -75/-72/-75 -84/-80/-84 -86/-81/-86
f -74/-71/-74 -85/-79/-85 -73/-70/-73
f -85/-79/-85 -83/-78/-83 -73/-70/-73
f -73/-70/-73 -83/-78/-83 -72/-69/-72
f -83/-78/-83 -89/-84/-89 -72/-69/-72
f -72/-69/-72 -89/-84/-89 -71/-68/-71
f -89/-84/-89 -87/-82/-87 -71/-68/-71
f -71/-68/-71 -87/-82/-87 -70/-67/-70
s 8
f -87/-82/-87 -91/-86/-91 -70/-67/-70
s 4
f -70/-67/-70 -91/-86/-91 -79/-75/-79
s 8
f -91/-86/-91 -69/-66/-69 -79/-75/-79
s 2
f -79/-75/-79 -69/-66/-69 -68/-65/-68
f -69/-66/-69 -67/-64/-67 -68/-65/-68
f -68/-65/-68 -67/-64/-67 -66/-66/-66
f -67/-64/-67 -65/-63/-65 -66/-66/-66
f -66/-66/-66 -65/-63/-65 -80/-86/-80
f -65/-63/-65 -64/-87/-64 -80/-86/-80
f -80/-86/-80 -64/-87/-64 -90/-85/-90
f -64/-87/-64 -63/-62/-63 -90/-85/-90
f -90/-85/-90 -63/-62/-63 -92/-87/-92
f -63/-62/-63 -62/-61/-62 -92/-87/-92
f -92/-87/-92 -62/-61/-62 -94/-89/-94
f -62/-61/-62 -61/-60/-61 -94/-89/-94
f -94/-89/-94 -61/-60/-61 -60/-59/-60
f -61/-60/-61 -59/-58/-59 -60/-59/-60
f -60/-59/-60 -59/-58/-59 -58/-57/-58
f -59/-58/-59 -57/-56/-57 -58/-57/-58
f -58/-57/-58 -57/-56/-57 -56/-89/-56
f -57/-56/-57 -62/-61/-62 -56/-89/-56
f -56/-89/-56 -62/-61/-62 -64/-87/-64
f -62/-61/-62 -63/-62/-63 -64/-87/-64
f -62/-61/-62 -57/-56/-57 -61/-60/-61
f -57/-56/-57 -59/-58/-59 -61/-60/-61
f -91/-86/-91 -87/-82/-87 -90/-85/-90
f -87/-82/-87 -88/-83/-88 -90/-85/-90
f -90/-85/-90 -88/-83/-88 -81/-76/-81
f -88/-83/-88 -89/-84/-89 -81/-76/-81
f -81/-76/-81 -89/-84/-89 -83/-78/-83
f -55/-55/-55 -54/-54/-54 -53/-53/-53
f -54/-54/-54 -52/-52/-52 -53/-53/-53
f -64/-87/-64 -65/-63/-65 -56/-89/-56
f -65/-63/-65 -67/-64/-67 -56/-89/-56
f -56/-89/-56 -67/-64/-67 -58/-57/-58
f -60/-59/-60 -58/-57/-58 -94/-89/-94
f -58/-57/-58 -67/-64/-67 -94/-89/-94
f -94/-89/-94 -67/-64/-67 -93/-88/-93
f -67/-64/-67 -69/-66/-69 -93/-88/-93
f -93/-88/-93 -69/-66/-69 -91/-86/-91
f -79/-75/-79 -68/-65/-68 -75/-72/-75
f -68/-65/-68 -66/-66/-66 -75/-72/-75
f -75/-72/-75 -66/-66/-66 -80/-86/-80
f -74/-71/-74 -73/-70/-73 -52/-52/-52
f -73/-70/-73 -72/-69/-72 -52/-52/-52
f -52/-52/-52 -72/-69/-72 -53/-53/-53
f -72/-69/-72 -71/-68/-71 -53/-53/-53
f -53/-53/-53 -71/-68/-71 -55/-55/-55
f -79/-75/-79 -77/-74/-77 -70/-67/-70
f -70/-67/-70 -77/-74/-77 -71/-68/-71
f -77/-74/-77 -76/-73/-76 -71/-68/-71
f -71/-68/-71 -76/-73/-76 -55/-55/-55
f -51/-51/-51 -50/-50/-50 -49/-49/-49
f -48/-48/-48 -47/-47/-47 -46/-46/-46
f -47/-47/-47 -45/-45/-45 -46/-46/-46
f -46/-46/-46 -45/-45/-45 -44/-44/-44
f -45/-45/-45 -43/-43/-43 -44/-44/-44
f -44/-44/-44 -43/-43/-43 -42/-42/-42
f -43/-43/-43 -41/-41/-41 -42/-42/-42
f -42/-42/-42 -41/-41/-41 -40/-40/-40
f -39/-39/-39 -38/-38/-38 -37/-37/-37
f -38/-38/-38 -36/-36/-36 -37/-37/-37
f -37/-37/-37 -36/-36/-36 -49/-49/-49
f -36/-36/-36 -35/-35/-35 -49/-49/-49
s 8
f -49/-49/-49 -35/-35/-35 -34/-34/-34
s 4
f -35/-35/-35 -33/-33/-33 -34/-34/-34
s 8
f -34/-34/-34 -33/-33/-33 -32/-32/-32
s 2
f -33/-33/-33 -31/-31/-31 -32/-32/-32
f -32/-32/-32 -31/-31/-31 -30/-30/-30
f -31/-31/-31 -44/-44/-44 -30/-30/-30
f -30/-30/-30 -44/-44/-44 -29/-29/-29
f -44/-44/-44 -42/-42/-42 -29/-29/-29
f -29/-29/-29 -42/-42/-42 -28/-28/-28
f -42/-42/-42 -40/-40/-40 -28/-28/-28
f -35/-35/-35 -36/-36/-36 -48/-48/-48
f -36/-36/-36 -38/-38/-38 -48/-48/-48
f -27/-27/-27 -26/-26/-26 -25/-25/-25
f -26/-26/-26 -24/-24/-24 -25/-25/-25
f -25/-25/-25 -24/-24/-24 -23/-23/-23
f -24/-24/-24 -51/-51/-51 -23/-23/-23
f -23/-23/-23 -51/-51/-51 -22/-22/-22
f -51/-51/-51 -49/-49/-49 -22/-22/-22
f -22/-22/-22 -49/-49/-49 -34/-34/-34
f -28/-28/-28 -21/-21/-21 -29/-29/-29
f -21/-21/-21 -20/-20/-20 -29/-29/-29
f -29/-29/-29 -20/-20/-20 -30/-30/-30
f -20/-20/-20 -19/-19/-19 -30/-30/-30
f -30/-30/-30 -19/-19/-19 -32/-32/-32
f -19/-19/-19 -18/-18/-18 -32/-32/-32
f -32/-32/-32 -18/-18/-18 -34/-34/-34
f -18/-18/-18 -17/-17/-17 -34/-34/-34
f -34/-34/-34 -17/-17/-17 -22/-22/-22
f -17/-17/-17 -16/-16/-16 -22/-22/-22
f -22/-22/-22 -16/-16/-16 -15/-15/-15
f -22/-22/-22 -15/-15/-15 -23/-23/-23
f -15/-15/-15 -14/-14/-14 -23/-23/-23
f -23/-23/-23 -14/-14/-14 -25/-25/-25
f -14/-14/-14 -13/-13/-13 -25/-25/-25
f -25/-25/-25 -13/-13/-13 -27/-27/-27
f -37/-37/-37 -49/-49/-49 -39/-39/-39
f -35/-35/-35 -48/-48/-48 -33/-33/-33
f -33/-33/-33 -48/-48/-48 -31/-31/-31
f -48/-48/-48 -46/-46/-46 -31/-31/-31
f -31/-31/-31 -46/-46/-46 -44/-44/-44
f -12/-12/-12 -11/-11/-11 -10/-10/-10
f -11/-11/-11 -9/-9/-9 -10/-10/-10
s 4
f -8/-8/-8 -6/-7/-6 -7/-6/-7
s 8
f -7/-6/-7 -6/-7/-6 -9/-9/-9
s 2
f -6/-7/-6 -5/-5/-5 -9/-9/-9
f -9/-9/-9 -5/-5/-5 -10/-10/-10
f -12/-12/-12 -4/-4/-4 -11/-11/-11
f -4/-4/-4 -3/-3/-3 -11/-11/-11
f -11/-11/-11 -3/-3/-3 -9/-9/-9
f -3/-3/-3 -2/-2/-2 -9/-9/-9
f -9/-9/-9 -2/-2/-2 -7/-6/-7
f -2/-2/-2 -1/-1/-1 -7/-6/-7
f -7/-6/-7 -1/-1/-1 -8/-8/-8
# 139 faces

g
